<svg width="531" height="92" viewBox="0 0 531 92" fill="none" xmlns="http://www.w3.org/2000/svg">
<g filter="url(#filter0_d_1846_538)">
<path d="M4.59375 8.6875C3.21875 8.3125 2.21875 7.875 1.59375 7.375C1.03125 6.875 0.75 6.125 0.75 5.125C0.75 3.1875 1.6875 2.21875 3.5625 2.21875H26.1562C33.5938 2.21875 39.375 4.03125 43.5 7.65625C47.625 11.2812 49.6875 16 49.6875 21.8125C49.6875 28.4375 47.4375 33.5 42.9375 37C38.5 40.5 32.1875 42.25 24 42.25H20.7188C19.1562 42.25 18.375 40.9375 18.375 38.3125C18.375 35.6875 19.0625 34.375 20.4375 34.375H22.875C27.5625 34.375 31.1875 33.3438 33.75 31.2812C36.3125 29.2188 37.5938 26.0312 37.5938 21.7188C37.6562 18.0312 36.4688 15.1562 34.0312 13.0938C31.5938 10.9688 28.875 9.90625 25.875 9.90625H21.375C18.8125 9.90625 17.5312 11.125 17.5312 13.5625V71.3125H6.28125V13.75C6.28125 11.75 6.09375 10.4375 5.71875 9.8125C5.34375 9.1875 4.96875 8.8125 4.59375 8.6875ZM48.8438 46.5625C48.8438 39.0625 50.7812 32.9375 54.6562 28.1875C58.5938 23.375 64.2812 20.9688 71.7188 20.9688C79.2188 20.9688 84.9375 23.375 88.875 28.1875C92.8125 32.9375 94.7812 39.0625 94.7812 46.5625C94.7812 54 92.8125 60.0938 88.875 64.8438C84.9375 69.5938 79.2188 71.9688 71.7188 71.9688C64.2812 71.9688 58.5938 69.5938 54.6562 64.8438C50.7812 60.0938 48.8438 54 48.8438 46.5625ZM61.125 46.5625C61.125 52.6875 62.2188 57.1875 64.4062 60.0625C66.5938 62.875 69.0312 64.2812 71.7188 64.2812C74.4688 64.2812 76.9375 62.875 79.125 60.0625C81.375 57.1875 82.5 52.6875 82.5 46.5625C82.5 40.375 81.375 35.8438 79.125 32.9688C76.9375 30.0938 74.4688 28.6562 71.7188 28.6562C69.0312 28.6562 66.5938 30.0938 64.4062 32.9688C62.2188 35.8438 61.125 40.375 61.125 46.5625ZM96.8438 46.5625C96.8438 39.0625 98.7812 32.9375 102.656 28.1875C106.594 23.375 112.281 20.9688 119.719 20.9688C127.219 20.9688 132.938 23.375 136.875 28.1875C140.812 32.9375 142.781 39.0625 142.781 46.5625C142.781 54 140.812 60.0938 136.875 64.8438C132.938 69.5938 127.219 71.9688 119.719 71.9688C112.281 71.9688 106.594 69.5938 102.656 64.8438C98.7812 60.0938 96.8438 54 96.8438 46.5625ZM109.125 46.5625C109.125 52.6875 110.219 57.1875 112.406 60.0625C114.594 62.875 117.031 64.2812 119.719 64.2812C122.469 64.2812 124.938 62.875 127.125 60.0625C129.375 57.1875 130.5 52.6875 130.5 46.5625C130.5 40.375 129.375 35.8438 127.125 32.9688C124.938 30.0938 122.469 28.6562 119.719 28.6562C117.031 28.6562 114.594 30.0938 112.406 32.9688C110.219 35.8438 109.125 40.375 109.125 46.5625ZM164.156 69.3438C164.156 75.9688 162.844 80.625 160.219 83.3125C157.594 86 153.719 87.3438 148.594 87.3438C143.344 87.3438 139.5 86.0938 137.062 83.5938C134.562 81.1562 133.312 77.6562 133.312 73.0938H145.125C145.125 76.3438 145.5 78.3438 146.25 79.0938C147.062 79.8438 147.844 80.2188 148.594 80.2188C149.781 80.2188 150.719 79.5312 151.406 78.1562C152.094 76.8438 152.438 73.9062 152.438 69.3438V33.5312C152.438 31.6562 152.312 30.4062 152.062 29.7812C151.875 29.1562 151.594 28.7812 151.219 28.6562C150.031 28.2812 149.125 27.9062 148.5 27.5312C147.875 27.0938 147.562 26.3125 147.562 25.1875C147.562 23.1875 148.906 22.1875 151.594 22.1875H160.125C162.812 22.1875 164.156 23.25 164.156 25.375V69.3438ZM164.812 7.65625C164.812 9.65625 164.094 11.375 162.656 12.8125C161.281 14.1875 159.562 14.875 157.5 14.875C155.562 14.875 153.906 14.1875 152.531 12.8125C151.156 11.375 150.469 9.65625 150.469 7.65625C150.469 5.65625 151.156 3.9375 152.531 2.5C153.906 1 155.562 0.25 157.5 0.25C159.562 0.25 161.281 1 162.656 2.5C164.094 3.9375 164.812 5.65625 164.812 7.65625ZM199.219 68.0312C198.406 68.6562 196.969 69.4688 194.906 70.4688C192.844 71.4688 189.938 71.9688 186.188 71.9688C181.75 71.9688 178.094 70.6875 175.219 68.125C172.344 65.5 170.906 62.1562 170.906 58.0938C170.906 52.5938 173.344 48.1875 178.219 44.875C183.156 41.5625 189.125 39.9062 196.125 39.9062H199.125V37.9375C199.125 35.0625 198.312 32.8125 196.688 31.1875C195.062 29.5 193.125 28.6562 190.875 28.6562C188.875 28.6562 187.156 29.1875 185.719 30.25C184.344 31.3125 183.656 33.375 183.656 36.4375H171.469C171.469 31.5 173.25 27.6875 176.812 25C180.375 22.3125 185.156 20.9688 191.156 20.9688C197.531 20.9688 202.375 22.5625 205.688 25.75C209.062 28.875 210.75 33.0938 210.75 38.4062V71.3125H199.219V68.0312ZM199.125 47.875C194.062 47.75 190.031 48.5312 187.031 50.2188C184.031 51.9062 182.531 54.2188 182.531 57.1562C182.531 59.6562 183.125 61.375 184.312 62.3125C185.5 63.1875 186.844 63.625 188.344 63.625C190.969 63.625 193.406 62.6562 195.656 60.7188C197.969 58.7812 199.125 56.4375 199.125 53.6875V47.875Z" fill="#FF5C00"/>
<path d="M254.812 71.3125L247.969 49.75H229.688L222.938 71.3125H211.594L229.781 14.7812C230.781 11.6562 231.156 9.90625 230.906 9.53125C230.719 9.09375 230.312 8.8125 229.688 8.6875C228.312 8.3125 227.312 7.90625 226.688 7.46875C226.062 6.96875 225.75 6.15625 225.75 5.03125C225.75 3.15625 227 2.21875 229.5 2.21875H244.406L267.281 71.3125H254.812ZM245.344 41.6875L238.688 20.7812L232.219 41.6875H245.344ZM270.656 33.7188C270.656 31.7188 270.5 30.4062 270.188 29.7812C269.938 29.0938 269.594 28.6562 269.156 28.4688C268.156 28.2188 267.312 27.875 266.625 27.4375C266 26.9375 265.688 26.1875 265.688 25.1875C265.688 23.1875 267.031 22.1875 269.719 22.1875H277.969C280.719 22.1875 282.094 23.3125 282.094 25.5625V26.3125C282.531 25.875 283 25.4688 283.5 25.0938C286.312 22.6562 290 21.4375 294.562 21.4375H299.344V31.9375C293.344 30.625 288.531 31.3438 284.906 34.0938C283.844 34.8438 282.906 35.9062 282.094 37.2812V71.3125H270.656V33.7188ZM338.344 68.4062C336.844 69.5312 334.688 70.4688 331.875 71.2188C329.125 71.9062 325.812 72.1562 321.938 71.9688C315.375 71.5938 309.844 69.0625 305.344 64.375C300.844 59.625 298.594 53.125 298.594 44.875C298.594 37.625 300.625 31.8438 304.688 27.5312C308.75 23.1562 314.344 20.9688 321.469 20.9688C327.219 20.9688 331.812 22.375 335.25 25.1875C338.75 27.9375 340.625 31.6562 340.875 36.3438H328.969C328.969 33.5938 328.25 31.625 326.812 30.4375C325.375 29.25 323.438 28.6562 321 28.6562C318.5 28.6562 316.156 30.0625 313.969 32.875C311.781 35.625 310.688 39.625 310.688 44.875C310.688 50.625 312 55.2188 314.625 58.6562C317.25 62.0938 320.562 63.9688 324.562 64.2812C325.938 64.4062 327.406 64.375 328.969 64.1875C330.531 63.9375 332.094 63.4375 333.656 62.6875C335.281 61.875 336.594 61.5938 337.594 61.8438C338.656 62.0938 339.438 62.6562 339.938 63.5312C340.25 64.4062 340.25 65.3125 339.938 66.25C339.688 67.125 339.156 67.8438 338.344 68.4062ZM358.969 71.3125H347.344V11.5938C347.344 9.71875 347.188 8.46875 346.875 7.84375C346.562 7.15625 346.188 6.71875 345.75 6.53125C344.75 6.15625 343.969 5.78125 343.406 5.40625C342.844 5.03125 342.562 4.3125 342.562 3.25C342.562 1.125 343.875 0.0625 346.5 0.0625H354.938C357.625 0.0625 358.969 1.09375 358.969 3.15625V27.3438C359.656 26.5938 360.469 25.875 361.406 25.1875C364.531 22.6875 368.031 21.4375 371.906 21.4375C376.406 21.4375 380.031 22.9688 382.781 26.0312C385.594 29.0938 387 34.25 387 41.5V71.3125H375.375V41.3125C375.375 36.9375 374.812 34.0312 373.688 32.5938C372.562 31.0938 371.25 30.3438 369.75 30.3438C367.125 30.3438 364.344 32.1562 361.406 35.7812C360.469 36.9688 359.656 38.4062 358.969 40.0938V71.3125ZM421.406 68.0312C420.594 68.6562 419.156 69.4688 417.094 70.4688C415.031 71.4688 412.125 71.9688 408.375 71.9688C403.938 71.9688 400.281 70.6875 397.406 68.125C394.531 65.5 393.094 62.1562 393.094 58.0938C393.094 52.5938 395.531 48.1875 400.406 44.875C405.344 41.5625 411.312 39.9062 418.312 39.9062H421.312V37.9375C421.312 35.0625 420.5 32.8125 418.875 31.1875C417.25 29.5 415.312 28.6562 413.062 28.6562C411.062 28.6562 409.344 29.1875 407.906 30.25C406.531 31.3125 405.844 33.375 405.844 36.4375H393.656C393.656 31.5 395.438 27.6875 399 25C402.562 22.3125 407.344 20.9688 413.344 20.9688C419.719 20.9688 424.562 22.5625 427.875 25.75C431.25 28.875 432.938 33.0938 432.938 38.4062V71.3125H421.406V68.0312ZM421.312 47.875C416.25 47.75 412.219 48.5312 409.219 50.2188C406.219 51.9062 404.719 54.2188 404.719 57.1562C404.719 59.6562 405.312 61.375 406.5 62.3125C407.688 63.1875 409.031 63.625 410.531 63.625C413.156 63.625 415.594 62.6562 417.844 60.7188C420.156 58.7812 421.312 56.4375 421.312 53.6875V47.875ZM452.156 71.3125H440.719V33.7188C440.719 31.7188 440.594 30.4375 440.344 29.875C440.156 29.25 439.812 28.8438 439.312 28.6562C438.188 28.2188 437.281 27.8125 436.594 27.4375C435.906 27.0625 435.562 26.3125 435.562 25.1875C435.562 23.1875 436.875 22.1875 439.5 22.1875H448.125C450.812 22.1875 452.156 23.3125 452.156 25.5625V27.25C452.844 26.5 453.656 25.7812 454.594 25.0938C457.531 22.6562 461.062 21.4375 465.188 21.4375C469.688 21.4375 473.312 22.9688 476.062 26.0312C478.875 29.0938 480.281 34.25 480.281 41.5V71.3125H468.656V41.3125C468.656 36.9375 468.094 34.0312 466.969 32.5938C465.844 31.0938 464.594 30.3438 463.219 30.3438C460.406 30.4062 457.625 32.1875 454.875 35.6875C453.812 37.0625 452.906 38.625 452.156 40.375V71.3125ZM514.688 68.0312C513.875 68.6562 512.438 69.4688 510.375 70.4688C508.312 71.4688 505.406 71.9688 501.656 71.9688C497.219 71.9688 493.562 70.6875 490.688 68.125C487.812 65.5 486.375 62.1562 486.375 58.0938C486.375 52.5938 488.812 48.1875 493.688 44.875C498.625 41.5625 504.594 39.9062 511.594 39.9062H514.594V37.9375C514.594 35.0625 513.781 32.8125 512.156 31.1875C510.531 29.5 508.594 28.6562 506.344 28.6562C504.344 28.6562 502.625 29.1875 501.188 30.25C499.812 31.3125 499.125 33.375 499.125 36.4375H486.938C486.938 31.5 488.719 27.6875 492.281 25C495.844 22.3125 500.625 20.9688 506.625 20.9688C513 20.9688 517.844 22.5625 521.156 25.75C524.531 28.875 526.219 33.0938 526.219 38.4062V71.3125H514.688V68.0312ZM514.594 47.875C509.531 47.75 505.5 48.5312 502.5 50.2188C499.5 51.9062 498 54.2188 498 57.1562C498 59.6562 498.594 61.375 499.781 62.3125C500.969 63.1875 502.312 63.625 503.812 63.625C506.438 63.625 508.875 62.6562 511.125 60.7188C513.438 58.7812 514.594 56.4375 514.594 53.6875V47.875Z" fill="#FF0099"/>
</g>
<defs>
<filter id="filter0_d_1846_538" x="0.75" y="0.0625" width="529.469" height="91.2812" filterUnits="userSpaceOnUse" color-interpolation-filters="sRGB">
<feFlood flood-opacity="0" result="BackgroundImageFix"/>
<feColorMatrix in="SourceAlpha" type="matrix" values="0 0 0 0 0 0 0 0 0 0 0 0 0 0 0 0 0 0 127 0" result="hardAlpha"/>
<feOffset dx="2" dy="2"/>
<feGaussianBlur stdDeviation="1"/>
<feComposite in2="hardAlpha" operator="out"/>
<feColorMatrix type="matrix" values="0 0 0 0 1 0 0 0 0 0.900833 0 0 0 0 0.645833 0 0 0 1 0"/>
<feBlend mode="normal" in2="BackgroundImageFix" result="effect1_dropShadow_1846_538"/>
<feBlend mode="normal" in="SourceGraphic" in2="effect1_dropShadow_1846_538" result="shape"/>
</filter>
</defs>
</svg>
