<svg width="20" height="15" viewBox="0 0 20 15" fill="none" xmlns="http://www.w3.org/2000/svg">
<path d="M9.50536 10.3125H3.70893L1.92321 15H0L5.71429 0H7.5L13.2143 15H11.2911L9.50536 10.3125ZM8.79107 8.4375L6.60714 2.70469L4.42321 8.4375H8.79107V8.4375ZM18.2143 8.00156V7.5H20V15H18.2143V14.4984C17.6713 14.8272 17.0555 15.0002 16.4288 15C15.802 14.9998 15.1863 14.8264 14.6436 14.4972C14.1008 14.168 13.6501 13.6946 13.3368 13.1246C13.0235 12.5546 12.8585 11.9081 12.8585 11.25C12.8585 10.5919 13.0235 9.94535 13.3368 9.37536C13.6501 8.80538 14.1008 8.33201 14.6436 8.00283C15.1863 7.67364 15.802 7.50022 16.4288 7.5C17.0555 7.49978 17.6713 7.67276 18.2143 8.00156V8.00156ZM16.4286 13.125C16.9022 13.125 17.3564 12.9275 17.6913 12.5758C18.0261 12.2242 18.2143 11.7473 18.2143 11.25C18.2143 10.7527 18.0261 10.2758 17.6913 9.92418C17.3564 9.57254 16.9022 9.375 16.4286 9.375C15.955 9.375 15.5008 9.57254 15.1659 9.92418C14.831 10.2758 14.6429 10.7527 14.6429 11.25C14.6429 11.7473 14.831 12.2242 15.1659 12.5758C15.5008 12.9275 15.955 13.125 16.4286 13.125V13.125Z" fill="#6D6E76"/>
</svg>
